<svg id="Layer_1" data-name="Layer 1" xmlns="http://www.w3.org/2000/svg" viewBox="0 0 500 500"><defs><style>.cls-1{fill:#a6e0f7;}.cls-2{fill:#337cf2;}.cls-3{fill:#fff;}.cls-4{fill:#fcfcfc;}</style></defs><path class="cls-1" d="M316.38,84.18a87.45,87.45,0,0,1-55.51-8.34c-29.36-15.08-64.77-15.42-92.19,1.83-28.33,18-40.55,50.26-34.38,82.13,3.76,19.42.11,39-10.4,54.72-15.65,23.3-18.73,56.2-.34,92.76a44,44,0,0,0,8.11,11c47.18,45.12,104,42.26,136.05,13.25,17.94-16.22,43.87-22.39,69.68-17.59C390,323.73,446.16,301.57,470.83,240a75.13,75.13,0,0,0,4.11-27.65C467.4,120.62,386,71.61,316.38,84.18Z"/><path class="cls-2" d="M404,402.59H71.49c-13.26,0-24-11.06-24-24.65V160.4c0-13.59,10.79-24.65,24-24.65H404c13.26,0,24.06,11.06,24.06,24.65V382.53h-.51A24.25,24.25,0,0,1,404,402.59ZM71.49,144.93c-8.2,0-14.88,6.94-14.88,15.47V377.94c0,8.53,6.68,15.48,14.88,15.48H404c8.2,0,14.87-6.95,14.87-15.48v-4.59h.09V160.4c0-8.53-6.68-15.47-14.88-15.47Z"/><path class="cls-2" d="M406.06,379.28H69.46V159.06h336.6ZM78.64,370.11H396.88V168.23H78.64Z"/><path class="cls-3" d="M59.45,430.79h353s26.64,0,29.45-32.79H30C32.82,430.79,59.45,430.79,59.45,430.79Z"/><path class="cls-2" d="M412.4,435.38H59.45c-.31,0-30.88-.43-34-37l-.43-5H446.85l-.43,5C443.28,435,412.71,435.38,412.4,435.38ZM59.47,426.2H412.4c.83,0,19.83-.51,24.21-23.61H35.24C39.61,425.64,58.55,426.19,59.47,426.2Z"/><rect class="cls-3" x="200.75" y="398" width="73.94" height="16.39"/><path class="cls-2" d="M279.27,419H196.16V393.42h83.11Zm-73.93-9.17H270.1v-7.22H205.34Z"/><path class="cls-1" d="M233.79,118.14a45.91,45.91,0,0,0-42.26-12.46,5.13,5.13,0,0,0-2.48,8.62l22,22A16.6,16.6,0,0,1,187.6,159.8l-21.94-22a5.12,5.12,0,0,0-8.62,2.47,45.8,45.8,0,0,0,42.09,55.5c.34,0,.77.08,1.28.08A49.84,49.84,0,0,1,230,210.09l97.58,97.59A22.28,22.28,0,0,0,359,276.17l-97.59-97.58a49.32,49.32,0,0,1-14.25-29.54,7,7,0,0,1-.09-1.28,46.16,46.16,0,0,0-13.32-29.63Z"/><path class="cls-2" d="M343.29,318.78a26.79,26.79,0,0,1-19-7.86L226.7,213.33a45.38,45.38,0,0,0-26.6-12.91l-.92-.07-.17,0a50.38,50.38,0,0,1-46.46-61.05,9.71,9.71,0,0,1,16.36-4.74l21.94,22a12,12,0,0,0,16.92-17.07l-22-22a9.71,9.71,0,0,1,4.7-16.34A50.34,50.34,0,0,1,237,114.9h0a50.78,50.78,0,0,1,14.64,32.57v.38a1.94,1.94,0,0,0,0,.48l0,.2a44.9,44.9,0,0,0,12.94,26.79l97.59,97.6a26.86,26.86,0,0,1-19,45.85Zm-144-127.62.8.06a2.72,2.72,0,0,0,.31,0l.52,0a54.58,54.58,0,0,1,32.26,15.57l97.59,97.58a17.68,17.68,0,1,0,25-25l-97.58-97.59a54.11,54.11,0,0,1-15.57-32.19,12.76,12.76,0,0,1-.12-1.75,41.35,41.35,0,0,0-50-37.73.52.52,0,0,0-.35.63.51.51,0,0,0,.14.26l22,22a21.2,21.2,0,0,1-29.9,30l-22-22.11a.52.52,0,0,0-.38-.15h0a.55.55,0,0,0-.38.15.51.51,0,0,0-.14.26,41.22,41.22,0,0,0,37.79,49.89Z"/><path class="cls-4" d="M341.79,251.16A12.58,12.58,0,0,0,331.72,248a1.43,1.43,0,0,1-1.37-.51l-.08-.09a1.57,1.57,0,0,1-.09-2.13,18.61,18.61,0,0,0,1.71-2.4,12.2,12.2,0,0,0-2.14-14.34,13.3,13.3,0,0,0-15-3.07c-.17.08-.6.17-.77,0s0-.6.08-.77a12.86,12.86,0,0,0-15.88-19.3c-.08,0-.42.26-.59.09s.17-.6.17-.6L299,203.6a12.89,12.89,0,1,0-17.7-18.75l-.32.31-31.41,31.33c-.26.26-.52.43-.77.69l-.17.17a8.14,8.14,0,0,1-11.79-.09l-8-7.94c-7.34,7.77-11.61,18-10.33,28.6l1.36,11.19a22.29,22.29,0,0,1-6.4,18.44L179.06,302l55.5,55.49,40.89-40.9a21.58,21.58,0,0,1,7-4.69L300.73,304a91.25,91.25,0,0,0,25-17.92l16.39-16.14a13,13,0,0,0,.15-18.32l-.49-.46Z"/><path class="cls-2" d="M234.56,363.94l-62-62,37.65-37.64a17.65,17.65,0,0,0,5.09-14.66L214,238.48c-1.36-11.32,2.85-23.09,11.55-32.31l3.23-3.41L240.09,214a3.55,3.55,0,0,0,5.31.1l.17-.17c.24-.23.47-.43.69-.62l31.5-31.4.41-.39a17.46,17.46,0,0,1,24.71.71,17.49,17.49,0,0,1,3.87,17.53,17.4,17.4,0,0,1,9.8,5.33,17.69,17.69,0,0,1,4.38,14.68A18.51,18.51,0,0,1,333,225.29a16.71,16.71,0,0,1,3.61,18.33,17.22,17.22,0,0,1,8.26,4.13h0l.66.64a17.53,17.53,0,0,1-.19,24.81L329,289.34a95.66,95.66,0,0,1-26.23,18.79l-.19.09-18.27,7.85a17,17,0,0,0-5.56,3.72Zm-49-62,49,49,37.65-37.65a26,26,0,0,1,8.49-5.69l18.11-7.79a86.42,86.42,0,0,0,23.67-17l16.43-16.18a8.37,8.37,0,0,0,.1-11.83l-.3-.29a8,8,0,0,0-6.34-2,6,6,0,0,1-5.45-2,6.16,6.16,0,0,1-.24-8.24,13.52,13.52,0,0,0,1.21-1.68,7.58,7.58,0,0,0-1.39-8.85,8.7,8.7,0,0,0-9.87-2.14,5,5,0,0,1-6.67-7l.39-.64a8.46,8.46,0,0,0-.55-10.67,8.22,8.22,0,0,0-9.64-1.77l-.94.45h-.33a4.83,4.83,0,0,1-4.58-1.27,5,5,0,0,1-.15-6.7l.33-.37,1.28-1.28a8.34,8.34,0,0,0,.44-11.83,8.2,8.2,0,0,0-5.8-2.6,8.39,8.39,0,0,0-5.94,2.26l-.22.21-31.42,31.34c-.24.24-.46.43-.69.62l-.25.23a12.72,12.72,0,0,1-18.23,0l-4.5-4.46c-4.77,6.51-7,14.07-6.1,21.28l1.37,11.18a26.77,26.77,0,0,1-7.72,22.25Zm148.14-53.73h0Zm-20.73-27-.27.12Z"/><path class="cls-4" d="M341.79,251.16A12.58,12.58,0,0,0,331.72,248a1.43,1.43,0,0,1-1.37-.51l-.08-.09a1.57,1.57,0,0,1-.09-2.13,18.61,18.61,0,0,0,1.71-2.4,12.2,12.2,0,0,0-2.14-14.34,13.3,13.3,0,0,0-15-3.07l-25.27,24.16a96,96,0,0,1-25,17.93l-18.27,7.85a22.86,22.86,0,0,0-7,4.7l-13.75,13.74s9.57,9.57.94,17.76a11.81,11.81,0,0,1-14.08,2l-10.59,10.76,32.95,32.95,40.9-40.89a21.57,21.57,0,0,1,7-4.7l18.27-7.85a91.49,91.49,0,0,0,25-17.93l16.39-16.14a12.93,12.93,0,0,0,0-18.28l-.44-.41Z"/><path class="cls-2" d="M234.65,363.85l-39.42-39.42L211.44,308l3,1.67a7.27,7.27,0,0,0,8.62-1.25,6.17,6.17,0,0,0,2.28-4.42c0-3-2.51-6.19-3.2-6.87l-3.24-3.25,17-17a27.3,27.3,0,0,1,8.43-5.66l18.15-7.81a91,91,0,0,0,23.71-17l25.9-24.76.7-.33a17.92,17.92,0,0,1,20.18,4,16.71,16.71,0,0,1,3.61,18.33,17.22,17.22,0,0,1,8.26,4.13h0l.59.57a17.5,17.5,0,0,1,0,24.77L329,289.26A95.22,95.22,0,0,1,302.82,308l-.2.09L284.35,316a16.87,16.87,0,0,0-5.56,3.72Zm-26.5-39.47,26.5,26.5,37.65-37.65a25.78,25.78,0,0,1,8.48-5.69l18.12-7.79a86.4,86.4,0,0,0,23.66-17L339,266.58a8.33,8.33,0,0,0,0-11.76l-.27-.27a8.05,8.05,0,0,0-6.34-2,6,6,0,0,1-5.45-2,6.16,6.16,0,0,1-.24-8.24,14.2,14.2,0,0,0,1.21-1.67,7.6,7.6,0,0,0-1.39-8.86,8.77,8.77,0,0,0-9.23-2.4l-24.64,23.57a100.27,100.27,0,0,1-26.15,18.72l-.23.1L248,279.62a18.41,18.41,0,0,0-5.6,3.75l-10.87,10.87a18.22,18.22,0,0,1,3,9.84,15.1,15.1,0,0,1-5,10.85,16.44,16.44,0,0,1-16.12,4.12Zm125.54-76.16h0Z"/><path class="cls-3" d="M224.06,374.7l37-37-61.47-61.47L101.12,374.7Z"/><path class="cls-2" d="M226,379.28H90L199.55,269.77l68,68Zm-113.77-9.17h110l32.38-32.38-55-55Z"/><path class="cls-3" d="M186.92,272.24a12,12,0,0,0,0,16.82L246,348.14a11.89,11.89,0,1,0,16.82-16.82l-59.08-59.08a11.81,11.81,0,0,0-16.69-.13l-.13.13Z"/><path class="cls-2" d="M254.41,356.21a16.37,16.37,0,0,1-11.65-4.82l-59.08-59.08a16.6,16.6,0,0,1,0-23.29l0,0,3.24,3.24L183.7,269l.16-.16A16.38,16.38,0,0,1,207,269l59.05,59.05a16.48,16.48,0,0,1-11.65,28.13Zm-67.49-84,3.26,3.23a7.39,7.39,0,0,0,0,10.37l59.06,59.06a7.3,7.3,0,1,0,10.33-10.33L200.5,275.49a7.23,7.23,0,0,0-10.23-.11Z"/><polygon class="cls-4" points="224.23 283.68 298.73 213.74 318.4 234.35 246.67 306.11 224.23 283.68"/></svg>