<svg id="Layer_1" data-name="Layer 1" xmlns="http://www.w3.org/2000/svg" viewBox="0 0 500 500"><defs><style>.cls-1{fill:#a6e0f7;}.cls-2{fill:#fff;}.cls-3{fill:#337cf2;}</style></defs><path class="cls-1" d="M294.92,289.57a1.36,1.36,0,0,0-.13-.37c-7.22-20.13-3.73-42.94,9.69-62.73,20-29.47,26.53-64.67,14.7-97C297.68,70.83,221,43.75,150.9,69.9c-69.75,26-109,94-87.92,152.58A97.91,97.91,0,0,0,92.2,264.15c11.29,9.56,14.65,24.59,8.73,38.72-7.65,18.28-9,38.18-2.28,56.81,16.09,44.9,73.12,65.88,127,46.76C280,387.11,310.9,334.88,294.92,289.57Z"/><path class="cls-2" d="M466.27,299.2l-28.06-8a111.6,111.6,0,0,0-13-31.36l14.2-25.5a5.59,5.59,0,0,0-.93-6.64l-19.18-19.18a5.59,5.59,0,0,0-6.63-.94l-25.47,14.21a111.58,111.58,0,0,0-31.36-13l-8-28a5.58,5.58,0,0,0-5.35-4H315.34a5.58,5.58,0,0,0-5.36,4l-8,28.06a112,112,0,0,0-31.36,13l-25.5-14.2a5.6,5.6,0,0,0-6.63.93l-19.19,19.18a5.59,5.59,0,0,0-.93,6.64l14.2,25.51a111.94,111.94,0,0,0-13,31.35l-28.07,8a5.59,5.59,0,0,0-4,5.35v27.08a5.57,5.57,0,0,0,4,5.35l28.1,8a112.19,112.19,0,0,0,13,31.36l-14.24,25.54a5.6,5.6,0,0,0,.93,6.63l19.19,19.18a5.57,5.57,0,0,0,6.63.93l25.5-14.2a111.9,111.9,0,0,0,31.36,13l8,28.07a5.59,5.59,0,0,0,5.36,4h27.11a5.59,5.59,0,0,0,5.36-4l8-28.07a111.9,111.9,0,0,0,31.36-13l25.51,14.2a5.57,5.57,0,0,0,6.63-.93l19.18-19.18a5.59,5.59,0,0,0,.93-6.63l-14.2-25.51a111.9,111.9,0,0,0,13-31.36l28.06-8a5.57,5.57,0,0,0,4-5.35V304.54A5.57,5.57,0,0,0,466.27,299.2ZM328.9,387.71a69.62,69.62,0,1,1,69.61-69.61h0A69.61,69.61,0,0,1,328.9,387.71Z"/><path class="cls-2" d="M282.12,111.72l-16.32-4.66a65.2,65.2,0,0,0-7.55-18.24L266.5,74a3.24,3.24,0,0,0-.54-3.86L254.78,59a3.21,3.21,0,0,0-3.85-.52L236.12,66.7a65.2,65.2,0,0,0-18.24-7.55l-4.66-16.32a3.22,3.22,0,0,0-3.1-2.35H194.35a3.23,3.23,0,0,0-3.11,2.35l-4.66,16.32a64.84,64.84,0,0,0-18.23,7.55l-14.83-8.25a3.23,3.23,0,0,0-3.85.54L138.49,70.17A3.24,3.24,0,0,0,138,74l8.26,14.84a65,65,0,0,0-7.56,18.23l-16.31,4.66a3.22,3.22,0,0,0-2.36,3.11v15.77a3.23,3.23,0,0,0,2.36,3.11l16.31,4.66a65.17,65.17,0,0,0,7.56,18.23L138,171.44a3.24,3.24,0,0,0,.54,3.86l11.18,11.17a3.21,3.21,0,0,0,3.85.54l14.84-8.26a64.77,64.77,0,0,0,18.23,7.57l4.65,16.32a3.26,3.26,0,0,0,3.12,2.35h15.77a3.24,3.24,0,0,0,3.11-2.35l4.66-16.32a65,65,0,0,0,18.24-7.57L250.93,187a3.24,3.24,0,0,0,3.86-.54L266,175.26a3.22,3.22,0,0,0,.54-3.85l-8.25-14.84a65.37,65.37,0,0,0,7.57-18.21l16.32-4.66a3.25,3.25,0,0,0,2.35-3.11V114.83a3.23,3.23,0,0,0-2.35-3.11Zm-79.89,43a32,32,0,1,1,32-32,32,32,0,0,1-32,32Z"/><path class="cls-3" d="M342.45,464.17H315.34a10.23,10.23,0,0,1-9.84-7.44l-7.25-25.5a116,116,0,0,1-27.68-11.47l-23.17,12.9a10.28,10.28,0,0,1-12.2-1.7L216,411.78a10.24,10.24,0,0,1-1.71-12.19l12.91-23.18a115.75,115.75,0,0,1-11.47-27.68l-25.5-7.26a10.25,10.25,0,0,1-7.45-9.83v-27.1a10.22,10.22,0,0,1,7.45-9.82l25.5-7.27a115.68,115.68,0,0,1,11.47-27.67L214.31,236.6A10.24,10.24,0,0,1,216,224.41l19.18-19.18a10.25,10.25,0,0,1,12.19-1.71l23.18,12.9A116.57,116.57,0,0,1,298.25,205l7.25-25.5a10.25,10.25,0,0,1,9.84-7.45h27.12a10.27,10.27,0,0,1,9.83,7.45l7.26,25.5a117.16,117.16,0,0,1,27.68,11.47l23.17-12.9a10.25,10.25,0,0,1,12.19,1.71l19.18,19.18a10.24,10.24,0,0,1,1.71,12.19l-12.9,23.18A116.06,116.06,0,0,1,442,287.45l25.51,7.27h0a10.22,10.22,0,0,1,7.45,9.82v27.13a10.25,10.25,0,0,1-7.45,9.83L442,348.75a116.2,116.2,0,0,1-11.46,27.69l12.9,23.17a10.22,10.22,0,0,1-1.71,12.19L422.59,431a10.24,10.24,0,0,1-12.19,1.71l-23.17-12.91a116.36,116.36,0,0,1-27.68,11.48l-7.26,25.47A10.23,10.23,0,0,1,342.45,464.17Zm-71.82-54.4a4.51,4.51,0,0,1,2.42.67,107.31,107.31,0,0,0,30,12.45,4.66,4.66,0,0,1,3.37,3.25l8,28.06a.92.92,0,0,0,.88.66h27.12a.92.92,0,0,0,.87-.66l8-28.06a4.67,4.67,0,0,1,3.37-3.25,107.43,107.43,0,0,0,30.06-12.45,4.67,4.67,0,0,1,4.66-.09l25.5,14.2a.93.93,0,0,0,1.08-.16l19.18-19.17a.91.91,0,0,0,.15-1.09l-14.2-25.49a4.67,4.67,0,0,1,.1-4.66,107.36,107.36,0,0,0,12.45-30.05,4.64,4.64,0,0,1,3.25-3.37l28.06-8a.91.91,0,0,0,.65-.88V304.54a.93.93,0,0,0-.65-.88l-28.06-8a4.65,4.65,0,0,1-3.25-3.38,107.49,107.49,0,0,0-12.45-30.05,4.65,4.65,0,0,1-.1-4.65l14.21-25.53a.93.93,0,0,0-.15-1.08L416,211.82a.93.93,0,0,0-1.08-.15l-25.51,14.19a4.63,4.63,0,0,1-4.65-.08,107,107,0,0,0-30.06-12.45,4.64,4.64,0,0,1-3.36-3.25l-8-28.06a1,1,0,0,0-.88-.66H315.34a1,1,0,0,0-.88.66l-8,28.07a4.66,4.66,0,0,1-3.37,3.25,106.77,106.77,0,0,0-30.05,12.45,4.63,4.63,0,0,1-4.65.08l-25.51-14.19a.93.93,0,0,0-1.08.15L222.64,231a.93.93,0,0,0-.16,1.08l14.2,25.51a4.65,4.65,0,0,1-.08,4.65,107.22,107.22,0,0,0-12.46,30.05,4.69,4.69,0,0,1-3.24,3.38l-28.07,8a.94.94,0,0,0-.66.88v27.13a.93.93,0,0,0,.66.87l28.07,8a4.68,4.68,0,0,1,3.24,3.37A107.09,107.09,0,0,0,236.6,374a4.67,4.67,0,0,1,.08,4.66l-14.2,25.5a.92.92,0,0,0,.16,1.07l19.18,19.19a1,1,0,0,0,1.08.15l25.5-14.2a4.69,4.69,0,0,1,2.26-.58Zm58.27-17.4A74.26,74.26,0,0,1,267,277.1a4.66,4.66,0,1,1,7.85,5l-.09.14a65.06,65.06,0,1,0,16.65-17.16A4.65,4.65,0,1,1,286,257.5a74.26,74.26,0,1,1,42.9,134.87Z"/><path class="cls-3" d="M113.36,347.52H98.72a7.69,7.69,0,0,1-7.37-5.58l-3.6-12.62a64.61,64.61,0,0,1-13.21-5.48l-11.46,6.38A7.72,7.72,0,0,1,53.93,329L43.58,318.62a7.69,7.69,0,0,1-1.24-9.14L48.73,298a64.46,64.46,0,0,1-5.48-13.22L30.59,281.2A7.69,7.69,0,0,1,25,273.83V259.18a7.67,7.67,0,0,1,5.59-7.36l12.61-3.6A64.61,64.61,0,0,1,48.68,235l-6.34-11.47a7.68,7.68,0,0,1,1.27-9.14L54,204a7.68,7.68,0,0,1,9.13-1.28l11.48,6.39a65.06,65.06,0,0,1,13.22-5.49l3.58-12.6a7.71,7.71,0,0,1,7.38-5.59H113.4a7.69,7.69,0,0,1,7.37,5.59l3.6,12.6a65.21,65.21,0,0,1,13.21,5.49L149,202.76a7.71,7.71,0,0,1,9.15,1.28l10.35,10.36a7.68,7.68,0,0,1,1.29,9.13L163.39,235a64.69,64.69,0,0,1,5.48,13.22l12.63,3.64a7.69,7.69,0,0,1,5.58,7.37v14.65a7.68,7.68,0,0,1-5.58,7.36l-12.62,3.6a64.69,64.69,0,0,1-5.48,13.22l6.38,11.46a7.68,7.68,0,0,1-1.27,9.14L158.15,329A7.71,7.71,0,0,1,149,330.3l-11.48-6.39a65.18,65.18,0,0,1-13.21,5.48L120.74,342a7.72,7.72,0,0,1-7.38,5.59ZM100,338.21h12.16l4-14a4.68,4.68,0,0,1,3.37-3.24,55.83,55.83,0,0,0,15.63-6.51,4.65,4.65,0,0,1,4.65-.09l12.68,7.06,8.59-8.6L154,300.18a4.63,4.63,0,0,1,.1-4.65,56,56,0,0,0,6.47-15.63,4.66,4.66,0,0,1,3.25-3.37l14-4V260.43l-14-4a4.64,4.64,0,0,1-3.25-3.36,55.66,55.66,0,0,0-6.44-15.63,4.67,4.67,0,0,1-.09-4.66l7.06-12.68-8.6-8.6-12.67,7.06a4.65,4.65,0,0,1-4.66-.08A55.38,55.38,0,0,0,119.5,212a4.64,4.64,0,0,1-3.37-3.25l-4-14H100l-4,14A4.65,4.65,0,0,1,92.62,212,55.38,55.38,0,0,0,77,218.53a4.67,4.67,0,0,1-4.66.08l-12.68-7.06-8.59,8.6,7.06,12.68a4.63,4.63,0,0,1-.09,4.65,55.91,55.91,0,0,0-6.47,15.64,4.64,4.64,0,0,1-3.25,3.36l-14,4v12.15l14,4A4.64,4.64,0,0,1,51.57,280,55.79,55.79,0,0,0,58,295.58a4.65,4.65,0,0,1,.09,4.66l-7.06,12.68,8.59,8.6,12.68-7.06a4.65,4.65,0,0,1,4.66.08,55.38,55.38,0,0,0,15.62,6.52A4.64,4.64,0,0,1,96,324.3Zm79-77.44"/><path class="cls-3" d="M106,295.18a28.68,28.68,0,1,1,28.67-28.69v0A28.69,28.69,0,0,1,106,295.18Zm0-48a19.37,19.37,0,1,0,19.36,19.38h0A19.38,19.38,0,0,0,106,247.14Z"/><path class="cls-3" d="M210.12,209.6H194.35a7.91,7.91,0,0,1-7.59-5.73l-3.92-13.77a70,70,0,0,1-14.53-6l-12.52,7a7.94,7.94,0,0,1-9.42-1.32L135.2,178.56a7.94,7.94,0,0,1-1.32-9.42l7-12.52a70,70,0,0,1-6-14.53l-13.77-3.92a7.92,7.92,0,0,1-5.73-7.59V114.83a7.89,7.89,0,0,1,5.73-7.59l13.77-3.92a70,70,0,0,1,6-14.53l-7-12.52a8,8,0,0,1,1.32-9.42l11.17-11.17a7.92,7.92,0,0,1,9.42-1.31l12.52,7a69.36,69.36,0,0,1,14.53-5.95l3.92-13.78a7.91,7.91,0,0,1,7.59-5.77h15.77a7.93,7.93,0,0,1,7.59,5.72l3.92,13.83a69.38,69.38,0,0,1,14.53,6l12.52-7a7.94,7.94,0,0,1,9.42,1.31l11.17,11.18a7.91,7.91,0,0,1,1.31,9.41l-7,12.53a69,69,0,0,1,6,14.52l13.79,3.92a7.93,7.93,0,0,1,5.72,7.59v15.78a7.93,7.93,0,0,1-5.72,7.59l-13.79,3.92a69,69,0,0,1-6,14.52l7,12.53a7.91,7.91,0,0,1-1.31,9.41L258.1,189.82a7.94,7.94,0,0,1-9.42,1.32l-12.52-7a68.88,68.88,0,0,1-14.53,6L217.71,204a7.91,7.91,0,0,1-7.59,5.74Zm-14.7-9.31H209L213.37,185a4.67,4.67,0,0,1,3.37-3.25,60.08,60.08,0,0,0,16.93-7,4.65,4.65,0,0,1,4.66-.08l13.89,7.73,9.69-9.68-7.73-13.88a4.65,4.65,0,0,1,.08-4.66,60.1,60.1,0,0,0,7-16.93,4.68,4.68,0,0,1,3.24-3.37l15.27-4.34V115.91l-15.29-4.35a4.68,4.68,0,0,1-3.24-3.37,60.1,60.1,0,0,0-7-16.93,4.65,4.65,0,0,1-.08-4.66l7.73-13.88L252.28,63l-13.9,7.73a4.63,4.63,0,0,1-4.65-.08,60.08,60.08,0,0,0-16.93-7,4.64,4.64,0,0,1-3.36-3.25L209,45.14H195.43l-4.36,15.29a4.67,4.67,0,0,1-3.37,3.25,60.08,60.08,0,0,0-16.93,7,4.65,4.65,0,0,1-4.66.08L152.22,63l-9.66,9.64,7.74,13.89a4.65,4.65,0,0,1-.09,4.65,60.2,60.2,0,0,0-7,16.93,4.66,4.66,0,0,1-3.25,3.37l-15.28,4.39v13.63L140,133.89a4.66,4.66,0,0,1,3.25,3.37,60.08,60.08,0,0,0,7,16.93,4.67,4.67,0,0,1,.09,4.66l-7.74,13.86,9.66,9.68,13.89-7.74a4.65,4.65,0,0,1,4.66.09,60.37,60.37,0,0,0,16.93,7,4.67,4.67,0,0,1,3.37,3.25Zm6.81-41a36.35,36.35,0,0,1-14.18-2.85,4.66,4.66,0,0,1,3.62-8.58,27.3,27.3,0,1,0-15.12-15.84,4.66,4.66,0,1,1-8.66,3.42,2,2,0,0,1-.08-.22,36.64,36.64,0,1,1,34.45,24.08Z"/><path class="cls-3" d="M323.73,321.28a5.4,5.4,0,0,1-2.27-2.5c-1.64-3.5-.14-8.49,3.36-11.13l35.06-26.46c3.49-2.65,7.66-1.95,9.31,1.55s.14,8.49-3.36,11.18l-35,26.46C328.39,322.13,325.71,322.39,323.73,321.28Z"/><path class="cls-3" d="M318.07,314a6.05,6.05,0,0,1,1.87-2.57,6.52,6.52,0,0,1,9,.8l23,26.42a6.08,6.08,0,0,1-.46,8.6l-.17.15a6.52,6.52,0,0,1-9-.8l-23.07-26.42A6.15,6.15,0,0,1,318.07,314Z"/></svg>