<svg id="Layer_1" data-name="Layer 1" xmlns="http://www.w3.org/2000/svg" viewBox="0 0 500 500"><defs><style>.cls-1{fill:#a6e0f7;}.cls-2{fill:#337cf2;}.cls-3{fill:#fff;}.cls-4{fill:#fafbfc;}</style></defs><path class="cls-1" d="M265,185.93a81.84,81.84,0,0,1-52.28-17.46c-25.8-20.09-60-26.31-89.5-13.11C92.73,169.15,75.35,200.24,76,233.79c.34,20.52-6.56,39.85-19.42,54.24-19.07,21.29-27.76,54.42-16.18,94.78a44.59,44.59,0,0,0,6,12.52c37.89,53.81,93.33,60,129.35,35.59,20.09-13.71,46.24-15.84,70.42-6.73,49.13,18.48,107.3,5,141.7-54,4-7,7.92-19.33,8.68-27.68C404.9,247.58,334.48,184.31,265,185.93Z"/><path class="cls-1" d="M451.29,254h-45V208.41h45A8.62,8.62,0,0,1,460,217v28.42A8.58,8.58,0,0,1,451.29,254Z"/><path class="cls-2" d="M451.29,258.79H401.47V203.57h49.82A13.51,13.51,0,0,1,464.87,217v28.42a13,13,0,0,1-3.81,9.34A13.6,13.6,0,0,1,451.29,258.79Zm-40.14-9.68h40.14a4.06,4.06,0,0,0,2.89-1.17,3.41,3.41,0,0,0,1-2.48V217a3.77,3.77,0,0,0-3.9-3.72H411.15Z"/><path class="cls-3" d="M394.27,287H363.7a11.26,11.26,0,0,1-11.43-11.18V186.61a11.31,11.31,0,0,1,11.43-11.18h30.57c14.72,0,26.71,11.66,26.71,26.06V261C421,275.35,409.07,287,394.27,287Z"/><path class="cls-2" d="M394.27,291.85H363.7a16.16,16.16,0,0,1-16.27-16V215.71a4.84,4.84,0,0,1,9.68,0v60.12a6.4,6.4,0,0,0,6.59,6.35h30.57c12.06,0,21.87-9.49,21.87-21.15V208.41a4.84,4.84,0,1,1,9.68,0V261C425.82,278,411.67,291.85,394.27,291.85Z"/><path class="cls-3" d="M286.68,400.13H166a11.9,11.9,0,0,1-11.28-15.67l25.16-75.08h93L298,384.47A11.89,11.89,0,0,1,286.68,400.13Z"/><path class="cls-2" d="M286.68,405H166a16.73,16.73,0,0,1-15.86-22.05l26.26-78.38h100l26.2,78.39a16.74,16.74,0,0,1-15.87,22ZM183.34,314.22,159.29,386a7,7,0,0,0,6.69,9.29h120.7a7,7,0,0,0,6.69-9.29l-24-71.78Z"/><path class="cls-1" d="M184.37,74.94v66.94a11.32,11.32,0,0,0,11.42,11.18h61.07a11.26,11.26,0,0,0,11.42-11.18V74.94Z"/><path class="cls-2" d="M256.86,158.35H195.79a16.61,16.61,0,0,1-16.71-16.47V69.65h94.49v72.23A16.61,16.61,0,0,1,256.86,158.35Zm-67.2-78.12v61.65a6,6,0,0,0,6.13,5.89h61.07a6,6,0,0,0,6.13-5.89V80.23Z"/><path class="cls-3" d="M279.79,82.6H172.86a11.19,11.19,0,1,1,0-22.37H279.79a11.19,11.19,0,1,1,0,22.37Z"/><path class="cls-2" d="M279.78,87.43H172.86a16,16,0,1,1,0-32H279.78a16,16,0,1,1,0,32ZM172.86,65.07a6.47,6.47,0,0,0-6.58,6.34,6.4,6.4,0,0,0,6.58,6.35H279.78a6.48,6.48,0,0,0,6.59-6.35,6.4,6.4,0,0,0-6.59-6.34Z"/><path class="cls-4" d="M278.47,130.7h54.74c23.17,0,42,18.34,42,41V290.71c0,22.61-18.82,41-42,41H119.44c-23.17,0-42-18.35-42-41V171.65c0-22.53,18.82-41,42-41h57.29"/><path class="cls-4" d="M375.2,220.72v70c0,22.61-18.82,41-42,41H119.44c-23.17,0-42-18.35-42-41V171.65c0-22.53,18.82-41,42-41h57.29"/><path class="cls-2" d="M333.21,336.5H119.44c-25.82,0-46.83-20.54-46.83-45.78V171.65c0-25.25,21-45.79,46.83-45.79h57.29a4.84,4.84,0,0,1,0,9.67H119.44c-20.49,0-37.15,16.2-37.15,36.12V290.72c0,19.91,16.66,36.11,37.15,36.11H333.21c20.48,0,37.15-16.2,37.15-36.11v-70a4.84,4.84,0,0,1,9.68,0v70C380,316,359,336.5,333.21,336.5Z"/><path class="cls-4" d="M278.47,130.7h54.74A42.48,42.48,0,0,1,353.83,136"/><path class="cls-2" d="M353.83,140.81a4.79,4.79,0,0,1-2.33-.6,38,38,0,0,0-18.29-4.68H278.47a4.84,4.84,0,1,1,0-9.67h54.74a47.65,47.65,0,0,1,23,5.88,4.84,4.84,0,0,1-2.34,9.07Z"/><path class="cls-2" d="M317.92,346.55c-3.14,0-5.64-5-5.64-11.18V127.08c0-6.2,2.54-11.19,5.64-11.19s5.64,5,5.64,11.19V335.37C323.6,341.56,321.06,346.55,317.92,346.55Z"/><path class="cls-2" d="M138,346.55c-3.13,0-5.64-5-5.64-11.18V127.08c0-6.2,2.54-11.19,5.64-11.19s5.64,5,5.64,11.19V335.37C143.65,341.56,141.11,346.55,138,346.55Z"/><path class="cls-2" d="M264.5,292.58H188.15a16,16,0,1,1,0-32.05H264.5a16,16,0,1,1,0,32.05Zm-76.35-22.37a6.48,6.48,0,0,0-6.59,6.35,6.41,6.41,0,0,0,6.59,6.34H264.5a6.35,6.35,0,1,0,0-12.69Z"/><path class="cls-2" d="M264.5,247.92H188.15a16,16,0,1,1,0-32H264.5a16,16,0,1,1,0,32Zm-76.35-22.36a6.48,6.48,0,0,0-6.59,6.34,6.41,6.41,0,0,0,6.59,6.35H264.5a6.35,6.35,0,1,0,0-12.69Z"/><path class="cls-2" d="M264.5,203.27H188.15a16,16,0,1,1,0-32H264.5a16,16,0,1,1,0,32Zm-76.35-22.36a6.48,6.48,0,0,0-6.59,6.34,6.41,6.41,0,0,0,6.59,6.35H264.5a6.35,6.35,0,1,0,0-12.69Z"/><path class="cls-2" d="M344.15,218.15V198.68a8.41,8.41,0,0,1,8.36-8.37H354a8.41,8.41,0,0,1,8.37,8.37v19.47a8.41,8.41,0,0,1-8.37,8.36h-1.45A8.41,8.41,0,0,1,344.15,218.15Z"/><path class="cls-2" d="M262,144.29h19.47a8.41,8.41,0,0,1,8.36,8.37v1.45a8.41,8.41,0,0,1-8.36,8.36H262a8.41,8.41,0,0,1-8.37-8.36v-1.45A8.41,8.41,0,0,1,262,144.29Z"/><path class="cls-2" d="M232.88,160.77a5.29,5.29,0,0,1-5.29-5.3c0-16.53,12.3-30,27.42-30a5.3,5.3,0,0,1,0,10.59c-9.29,0-16.84,8.7-16.84,19.4A5.29,5.29,0,0,1,232.88,160.77Z"/><path class="cls-2" d="M216.15,158.27a5.29,5.29,0,0,1-5.29-5.29A44.24,44.24,0,0,1,255,108.75a5.29,5.29,0,1,1,0,10.58A33.65,33.65,0,0,0,221.44,153,5.29,5.29,0,0,1,216.15,158.27Z"/><path class="cls-2" d="M198.61,153.69a5.29,5.29,0,0,1-5.29-5.3c0-31,22.69-56.29,50.58-56.29a5.29,5.29,0,1,1,0,10.58c-22.05,0-40,20.51-40,45.71A5.29,5.29,0,0,1,198.61,153.69Z"/><path class="cls-2" d="M379,201.35a5.09,5.09,0,0,1-1.16-.13,5.3,5.3,0,0,1-4-6.32,13.81,13.81,0,0,0-2.52-11.2A19,19,0,0,0,360,176.48a5.29,5.29,0,1,1,2.3-10.33,29.48,29.48,0,0,1,17.59,11.35,24.32,24.32,0,0,1,4.28,19.71A5.3,5.3,0,0,1,379,201.35Z"/><path class="cls-2" d="M394,204.76a4.9,4.9,0,0,1-1.13-.13,5.28,5.28,0,0,1-4-6.3A30.67,30.67,0,0,0,365.56,162a5.29,5.29,0,0,1,2.29-10.33,41.27,41.27,0,0,1,31.36,49A5.29,5.29,0,0,1,394,204.76Z"/><path class="cls-2" d="M411.23,198.09a5.69,5.69,0,0,1-1.15-.12,5.3,5.3,0,0,1-4-6.31c4.32-19.6-10.42-39.6-32.86-44.59a5.29,5.29,0,0,1,2.29-10.33c28.13,6.25,46.48,31.91,40.91,57.2A5.28,5.28,0,0,1,411.23,198.09Z"/></svg>