<svg id="Layer_1" data-name="Layer 1" xmlns="http://www.w3.org/2000/svg" viewBox="0 0 500 500"><defs><style>.cls-1{fill:#a6e0f7;}.cls-2{fill:#fff;}.cls-3{fill:#337cf2;}</style></defs><path class="cls-1" d="M383.76,157.85a95.22,95.22,0,0,1-49.21-42.53,106.47,106.47,0,0,0-188.69,3.78A97.93,97.93,0,0,1,94.8,166.38C62,179.56,34.51,209.88,25.73,257.16a42.88,42.88,0,0,0,0,15.73c13.53,73.47,72.41,105.82,125.93,97.29,30-4.83,60.38,5.19,82.61,25.93,45.17,42.09,117.68,55.27,188,10.19,8.27-5.27,19.34-16.35,24.61-24.61C507.5,287,462.59,188.53,383.76,157.85Z"/><path class="cls-2" d="M299.83,435.65H200.17l20-79h59.76Z"/><path class="cls-2" d="M425.77,135.18V358.67a13.17,13.17,0,0,1-13.18,13.18H87.42a13.16,13.16,0,0,1-13.18-13.18V135.18A13.16,13.16,0,0,1,87.42,122H412.59A13.17,13.17,0,0,1,425.77,135.18Z"/><path class="cls-1" d="M425.77,202.85V135.18A13.17,13.17,0,0,0,412.59,122H87.42a13.16,13.16,0,0,0-13.18,13.18v67.67Z"/><path class="cls-2" d="M225,204.61h50.09v123H225Z"/><path class="cls-2" d="M425.77,164.36V135.18A13.17,13.17,0,0,0,412.59,122H87.42a13.16,13.16,0,0,0-13.18,13.18v29.18Z"/><path class="cls-2" d="M74.24,327.47v31.11a13.16,13.16,0,0,0,13.18,13.18H412.59a13.17,13.17,0,0,0,13.18-13.18V327.47Z"/><path class="cls-2" d="M321.19,163.48A71.22,71.22,0,0,1,250,234.66c-39.37,0-71.71-32.78-71.18-72.15a70.89,70.89,0,0,1,28-55.63A8.79,8.79,0,0,1,221,113.82v30.32a8.82,8.82,0,0,0,8.79,8.79h40.43a8.81,8.81,0,0,0,8.78-8.79V113.82a8.79,8.79,0,0,1,14.15-6.94A71.1,71.1,0,0,1,321.19,163.48Z"/><path class="cls-3" d="M107.72,147.57a4.35,4.35,0,0,0,4.39-4.39v-.09a4.39,4.39,0,1,0-8.78,0v.09A4.35,4.35,0,0,0,107.72,147.57Z"/><path class="cls-3" d="M124.68,147.57a4.35,4.35,0,0,0,4.4-4.39v-.09a4.4,4.4,0,0,0-8.79,0v.09A4.35,4.35,0,0,0,124.68,147.57Z"/><path class="cls-3" d="M141.64,147.57a4.35,4.35,0,0,0,4.4-4.39v-.09a4.4,4.4,0,0,0-8.79,0v.09A4.4,4.4,0,0,0,141.64,147.57Z"/><path class="cls-3" d="M412.59,117.6H310.12a75.45,75.45,0,0,0-14.24-14.15,13.42,13.42,0,0,0-14-1.4,13.08,13.08,0,0,0-7.29,11.77v3.7H245.26a4.39,4.39,0,1,0,0,8.78h29.35v17.84a4.35,4.35,0,0,1-4.39,4.4H229.79a4.35,4.35,0,0,1-4.39-4.4V113.82a13.18,13.18,0,0,0-21.18-10.45A74.57,74.57,0,0,0,190,117.52H87.42a17.63,17.63,0,0,0-17.58,17.57v223.4a17.63,17.63,0,0,0,17.58,17.58H210.63l-13.88,55.1H183.3a4.4,4.4,0,0,0,0,8.79H316.79a4.4,4.4,0,1,0,0-8.79H303.35l-13.89-55.1H412.59a17.63,17.63,0,0,0,17.57-17.58V135.18a17.63,17.63,0,0,0-17.57-17.58Zm-334,205.47V168.75h96a75,75,0,0,0,21.71,47.81,77.23,77.23,0,0,0,24.16,16.61v90.08H78.63Zm150.72-86.91a73.85,73.85,0,0,0,20.65,2.9,76.93,76.93,0,0,0,20.66-2.9v67a4.39,4.39,0,1,0,8.78,0V233a75.85,75.85,0,0,0,46-64.41h96V323h-192ZM412.59,126.39a8.82,8.82,0,0,1,8.79,8.79V160H325.49a75.27,75.27,0,0,0-9.57-33.57Zm-203.1-16a4.46,4.46,0,0,1,2.72-1,5.61,5.61,0,0,1,2,.44,4.34,4.34,0,0,1,2.47,3.95v30.32a13.16,13.16,0,0,0,13.18,13.19H270.3a13.17,13.17,0,0,0,13.19-13.19V113.82a4.32,4.32,0,0,1,2.46-3.95,4.41,4.41,0,0,1,4.74.44,66.76,66.76,0,1,1-81.2.09Zm-122.07,16h96.67A74.74,74.74,0,0,0,174.51,160H78.63V135.18A8.82,8.82,0,0,1,87.42,126.39ZM294.21,431.26H205.8l13.88-55.1h60.56Zm118.38-63.89H87.42a8.82,8.82,0,0,1-8.79-8.79V331.86H421.38v26.72A8.76,8.76,0,0,1,412.59,367.37Z"/><path class="cls-3" d="M166.34,237.48H153.16a4.49,4.49,0,1,1,0-9h13.18a4.49,4.49,0,0,1,0,9Z"/><path class="cls-3" d="M189.1,237.48h-5.8a4.49,4.49,0,0,1,0-9h5.8a4.49,4.49,0,0,1,0,9Z"/><path class="cls-3" d="M189.1,255.4H153.16a4.48,4.48,0,1,1,0-9H189.1a4.48,4.48,0,1,1,0,9Z"/><path class="cls-3" d="M112.47,251.19a4.12,4.12,0,0,1-3.08-1.32l-6.15-6.15a4.41,4.41,0,0,1,6.24-6.24l3,3,10.81-10.8a4.41,4.41,0,1,1,6.24,6.23l-14,14A4.11,4.11,0,0,1,112.47,251.19Z"/><path class="cls-3" d="M166.34,285.72H153.16a4.48,4.48,0,1,1,0-9h13.18a4.48,4.48,0,0,1,0,9Z"/><path class="cls-3" d="M189.1,285.72h-5.8a4.48,4.48,0,0,1,0-9h5.8a4.48,4.48,0,1,1,0,9Z"/><path class="cls-3" d="M189.1,303.56H153.16a4.48,4.48,0,1,1,0-9H189.1a4.48,4.48,0,1,1,0,9Z"/><path class="cls-3" d="M112.47,299.43a4.14,4.14,0,0,1-3.08-1.31L103.24,292a4.41,4.41,0,0,1,6.24-6.24l3,3,10.81-10.81a4.41,4.41,0,0,1,6.24,6.24l-14,14A4.46,4.46,0,0,1,112.47,299.43Z"/><path class="cls-3" d="M370.84,237.48H357.66a4.49,4.49,0,0,1,0-9h13.18a4.49,4.49,0,0,1,0,9Z"/><path class="cls-3" d="M393.6,237.48h-5.8a4.49,4.49,0,0,1,0-9h5.8a4.49,4.49,0,1,1,0,9Z"/><path class="cls-3" d="M393.6,255.4H357.66a4.48,4.48,0,0,1,0-9H393.6a4.48,4.48,0,1,1,0,9Z"/><path class="cls-3" d="M317,251.19a4.15,4.15,0,0,1-3.08-1.32l-6.15-6.15a4.41,4.41,0,0,1,6.24-6.24l3,3,10.81-10.8a4.41,4.41,0,1,1,6.24,6.23l-14,14A4.13,4.13,0,0,1,317,251.19Z"/><path class="cls-3" d="M370.84,285.72H357.66a4.48,4.48,0,0,1,0-9h13.18a4.48,4.48,0,0,1,0,9Z"/><path class="cls-3" d="M393.6,285.72h-5.8a4.48,4.48,0,1,1,0-9h5.8a4.48,4.48,0,1,1,0,9Z"/><path class="cls-3" d="M393.6,303.56H357.66a4.48,4.48,0,1,1,0-9H393.6a4.48,4.48,0,1,1,0,9Z"/><path class="cls-3" d="M317,299.43a4.17,4.17,0,0,1-3.08-1.31L307.74,292a4.41,4.41,0,0,1,6.24-6.24l3,3,10.81-10.81a4.41,4.41,0,0,1,6.24,6.24L320.13,298A4.53,4.53,0,0,1,317,299.43Z"/></svg>