<svg
  xmlns="http://www.w3.org/2000/svg"
  id="Camada_1"
  data-name="Camada 1"
  viewBox="0 0 74.42 10.15"
>
  <defs>
    <style>
      .cls-1 {
        fill: #2563eb;
      }
    </style>
  </defs>
  <title>Logo-Tractian</title>
  <g fill="#2563eb" id="title">
    <path
      id="path271385"
      d="M9.06,7.89v7.57h2.76V7.89h3V5.71H6.06V7.89Z"
      transform="translate(-6.06 -5.46)"
    />
    <path
      id="path271387"
      class="cls-1"
      d="M22.53,12.4a3.39,3.39,0,0,0,1.41-1.23,3.33,3.33,0,0,0,.5-1.85,3.33,3.33,0,0,0-2-3.17,5.65,5.65,0,0,0-2.3-.44H15.65V7.88h4.29a1.92,1.92,0,0,1,1.28.38,1.36,1.36,0,0,1,.43,1.06,1.35,1.35,0,0,1-.43,1.06,1.92,1.92,0,0,1-1.28.36H15.65v4.72h2.76V12.87h1.5l1.77,2.59h3Z"
      transform="translate(-6.06 -5.46)"
    />
    <path
      id="path271389"
      class="cls-1"
      d="M32.39,5.71H29.67l-4.31,9.75h2.82l.76-1.89.81-2L31,8.41l1.25,3.12.81,2,.77,1.89h2.87Z"
      transform="translate(-6.06 -5.46)"
    />
    <path
      id="path271391"
      class="cls-1"
      d="M38.88,15a5.79,5.79,0,0,0,2.76.64,5.86,5.86,0,0,0,2.41-.47,4.57,4.57,0,0,0,1.79-1.37l-1.76-1.59a2.93,2.93,0,0,1-3.72.8,2.33,2.33,0,0,1-1-1,3.28,3.28,0,0,1,0-2.91,2.41,2.41,0,0,1,1-1,2.9,2.9,0,0,1,1.42-.35,3,3,0,0,1,2.3,1.14L45.84,7.3a4.85,4.85,0,0,0-1.79-1.36,6,6,0,0,0-2.41-.48,5.8,5.8,0,0,0-2.76.66A4.8,4.8,0,0,0,37,7.92a4.93,4.93,0,0,0-.69,2.62A4.93,4.93,0,0,0,37,13.16,4.76,4.76,0,0,0,38.88,15Z"
      transform="translate(-6.06 -5.46)"
    />
    <path
      id="path271393"
      class="cls-1"
      d="M49.28,7.89v7.57H52V7.89h3V5.71H46.28V7.89Z"
      transform="translate(-6.06 -5.46)"
    />
    <path
      id="path271395"
      class="cls-1"
      d="M55.87,5.71v9.75h2.76V5.71Z"
      transform="translate(-6.06 -5.46)"
    />
    <path
      id="path271397"
      class="cls-1"
      d="M66.27,5.71H63.55l-4.31,9.75h2.82l.77-1.89.8-2,1.26-3.12,1.25,3.12.81,2,.77,1.89h2.87Z"
      transform="translate(-6.06 -5.46)"
    />
    <path
      id="path271399"
      class="cls-1"
      d="M71.19,15.46H73.9l0-2.91L71.21,9.11Zm6.58-9.75v2.8l2.7,3.26,0-6.06Zm0,5.2-4.31-5.2H71.19V7l2.71,3.26,4.3,5.2h2.28V14.33l-2.71-3.44Z"
      transform="translate(-6.06 -5.46)"
    />
  </g>
</svg>
